<?xml version="1.0" encoding="UTF-8"?>
<svg width="285px" height="107px" viewBox="0 0 285 107" version="1.1" xmlns="http://www.w3.org/2000/svg" xmlns:xlink="http://www.w3.org/1999/xlink">
    <!-- Generator: Sketch 50 (54983) - http://www.bohemiancoding.com/sketch -->
    <title>Sparkle-Logo</title>
    <desc>Created with Sketch.</desc>
    <defs></defs>
    <g id="Home" stroke="none" stroke-width="1" fill="none" fill-rule="evenodd">
        <g id="Combinaut-Micro" transform="translate(-251.000000, -1578.000000)">
            <g id="Sparkle-Logo" transform="translate(251.000000, 1577.998047)">
                <rect id="Rectangle" fill="#FFFFFF" x="0" y="0" width="285" height="107"></rect>
                <g id="sparkle-logo" transform="translate(7.125000, 8.916667)" stroke-width="1">
                    <g id="sparkle-mark">
                        <g id="Group" fill-rule="nonzero">
                            <path d="M22.443956,14.91875 L17.2879121,14.91875 L17.2879121,9.46458333 C17.2879121,8.50208333 16.5296703,7.7 15.6197802,7.7 C14.7098901,7.7 13.9516484,8.50208333 13.9516484,9.46458333 L13.9516484,14.91875 L8.7956044,14.91875 C7.88571429,14.91875 7.12747253,15.7208333 7.12747253,16.6833333 C7.12747253,17.6458333 7.88571429,18.4479167 8.7956044,18.4479167 L13.9516484,18.4479167 L13.9516484,24.0625 C13.9516484,25.025 14.7098901,25.8270833 15.6197802,25.8270833 C16.5296703,25.8270833 17.2879121,25.025 17.2879121,24.0625 L17.2879121,18.6083333 L22.443956,18.6083333 C23.3538462,18.6083333 24.1120879,17.80625 24.1120879,16.84375 C24.1120879,15.7208333 23.3538462,14.91875 22.443956,14.91875" id="Fill-2" fill="#4588A0"></path>
                            <path d="M62.9340659,14.91875 L57.778022,14.91875 L57.778022,9.46458333 C57.778022,8.50208333 57.0197802,7.7 56.1098901,7.7 C55.2,7.7 54.4417582,8.50208333 54.4417582,9.46458333 L54.4417582,14.91875 L49.2857143,14.91875 C48.3758242,14.91875 47.6175824,15.7208333 47.6175824,16.6833333 C47.6175824,17.6458333 48.3758242,18.4479167 49.2857143,18.4479167 L54.4417582,18.4479167 L54.4417582,24.0625 C54.4417582,25.025 55.2,25.8270833 56.1098901,25.8270833 C57.0197802,25.8270833 57.778022,25.025 57.778022,24.0625 L57.778022,18.6083333 L62.9340659,18.6083333 C63.843956,18.6083333 64.6021978,17.80625 64.6021978,16.84375 C64.7538462,15.7208333 63.9956044,14.91875 62.9340659,14.91875" id="Fill-3" fill="#6EC38C"></path>
                            <path d="M21.989011,58.5520833 L16.832967,58.5520833 L16.832967,53.0979167 C16.832967,52.1354167 16.0747253,51.3333333 15.1648352,51.3333333 C14.2549451,51.3333333 13.4967033,52.1354167 13.4967033,53.0979167 L13.4967033,58.5520833 L8.34065934,58.5520833 C7.43076923,58.5520833 6.67252747,59.3541667 6.67252747,60.3166667 C6.67252747,61.2791667 7.43076923,62.08125 8.34065934,62.08125 L13.4967033,62.08125 L13.4967033,67.5354167 C13.4967033,68.4979167 14.2549451,69.3 15.1648352,69.3 C16.0747253,69.3 16.832967,68.4979167 16.832967,67.5354167 L16.832967,62.08125 L21.989011,62.08125 C22.8989011,62.08125 23.6571429,61.2791667 23.6571429,60.3166667 C23.6571429,59.3541667 22.8989011,58.5520833 21.989011,58.5520833" id="Fill-4" fill="#9373B3"></path>
                            <path d="M62.9340659,58.5520833 L57.778022,58.5520833 L57.778022,53.0979167 C57.778022,52.1354167 57.0197802,51.3333333 56.1098901,51.3333333 C55.2,51.3333333 54.4417582,52.1354167 54.4417582,53.0979167 L54.4417582,58.5520833 L49.2857143,58.5520833 C48.3758242,58.5520833 47.6175824,59.3541667 47.6175824,60.3166667 C47.6175824,61.2791667 48.3758242,62.08125 49.2857143,62.08125 L54.4417582,62.08125 L54.4417582,67.5354167 C54.4417582,68.4979167 55.2,69.3 56.1098901,69.3 C57.0197802,69.3 57.778022,68.4979167 57.778022,67.5354167 L57.778022,62.08125 L62.9340659,62.08125 C63.843956,62.08125 64.6021978,61.2791667 64.6021978,60.3166667 C64.7538462,59.3541667 63.9956044,58.5520833 62.9340659,58.5520833" id="Fill-5" fill="#CD8B49"></path>
                            <path d="M44.1296703,26.6291667 L35.6373626,35.6125 L27.1450549,26.6291667 C26.5384615,25.9875 25.3252747,25.9875 24.7186813,26.6291667 C24.1120879,27.2708333 24.1120879,28.5541667 24.7186813,29.1958333 L33.210989,38.1791667 L24.7186813,47.1625 C24.1120879,47.8041667 24.1120879,49.0875 24.7186813,49.7291667 C25.3252747,50.3708333 26.5384615,50.3708333 27.1450549,49.7291667 L35.6373626,40.7458333 L44.1296703,49.7291667 C44.7362637,50.3708333 45.9494505,50.3708333 46.556044,49.7291667 C47.1626374,49.0875 47.1626374,47.8041667 46.556044,47.1625 L38.0637363,38.1791667 L46.556044,29.1958333 C47.1626374,28.5541667 47.1626374,27.2708333 46.556044,26.6291667 C45.7978022,25.8270833 44.7362637,25.8270833 44.1296703,26.6291667" id="Fill-6" fill="#7C969D"></path>
                            <path d="M68.6967033,41.3875 C67.0285714,41.3875 65.6637363,39.94375 65.6637363,38.1791667 C65.6637363,36.4145833 67.0285714,34.9708333 68.6967033,34.9708333 C70.3648352,34.9708333 71.7296703,36.4145833 71.7296703,38.1791667 C71.7296703,39.94375 70.3648352,41.3875 68.6967033,41.3875" id="Fill-7" fill="#CFC62A"></path>
                            <path d="M3.03296703,41.3875 C1.36483516,41.3875 0,39.94375 0,38.1791667 C0,36.4145833 1.36483516,34.9708333 3.03296703,34.9708333 C4.7010989,34.9708333 6.06593407,36.4145833 6.06593407,38.1791667 C6.21758242,39.94375 4.7010989,41.3875 3.03296703,41.3875" id="Fill-8" fill="#59ADCB"></path>
                            <path d="M35.6373626,76.51875 C33.9692308,76.51875 32.6043956,75.075 32.6043956,73.3104167 C32.6043956,71.5458333 33.9692308,70.1020833 35.6373626,70.1020833 C37.3054945,70.1020833 38.6703297,71.5458333 38.6703297,73.3104167 C38.6703297,75.075 37.3054945,76.51875 35.6373626,76.51875" id="Fill-9" fill="#B75C64"></path>
                            <path d="M35.6373626,6.7375 C33.9692308,6.7375 32.6043956,5.29375 32.6043956,3.52916667 C32.6043956,1.76458333 33.9692308,0.320833333 35.6373626,0.320833333 C37.3054945,0.320833333 38.6703297,1.76458333 38.6703297,3.52916667 C38.6703297,5.29375 37.3054945,6.7375 35.6373626,6.7375" id="Fill-10" fill="#42896B"></path>
                        </g>
                    </g>
                </g>
                <path d="M116.1375,64.735 C113.358736,64.735 110.945166,64.2802545 108.896719,63.37075 C106.848271,62.4612455 105.280787,61.2753406 104.194219,59.813 C103.107651,58.3506594 102.52875,56.7813417 102.4575,55.105 C102.4575,54.8196652 102.564374,54.5700011 102.778125,54.356 C102.991876,54.1419989 103.259061,54.035 103.579688,54.035 L104.648438,54.035 C105.289691,54.035 105.681562,54.3916631 105.824063,55.105 C106.073439,56.8170086 107.053116,58.3149936 108.763125,59.599 C110.473134,60.8830064 112.931234,61.525 116.1375,61.525 C119.521892,61.525 122.042335,60.9097562 123.698906,59.67925 C125.355477,58.4487438 126.18375,56.7278444 126.18375,54.5165 C126.18375,53.1611599 125.782973,52.0465877 124.981406,51.17275 C124.17984,50.2989123 123.013133,49.5320866 121.48125,48.87225 C119.949367,48.2124134 117.633765,47.3831717 114.534375,46.3845 C111.791236,45.4928289 109.644851,44.6190043 108.095156,43.763 C106.545461,42.9069957 105.396566,41.8548396 104.648438,40.6065 C103.900309,39.3581604 103.52625,37.7710096 103.52625,35.845 C103.52625,34.0259909 104.016089,32.3853406 104.995781,30.923 C105.975474,29.4606594 107.391553,28.3104209 109.244063,27.47225 C111.096572,26.6340791 113.3053,26.215 115.870313,26.215 C118.506576,26.215 120.768741,26.6875786 122.656875,27.63275 C124.545009,28.5779214 125.969995,29.7727428 126.931875,31.21725 C127.893755,32.6617572 128.410312,34.1151594 128.481563,35.5775 C128.481563,35.8628348 128.383595,36.1124989 128.187656,36.3265 C127.991718,36.5405011 127.715627,36.6475 127.359375,36.6475 L126.290625,36.6475 C126.041249,36.6475 125.791876,36.5672508 125.5425,36.40675 C125.293124,36.2462492 125.150625,35.9698353 125.115,35.5775 C124.901249,33.7941578 123.94829,32.3229225 122.256094,31.16375 C120.563898,30.0045775 118.435325,29.425 115.870313,29.425 C113.127174,29.425 110.945164,29.9599947 109.324219,31.03 C107.703273,32.1000054 106.892813,33.7049893 106.892813,35.845 C106.892813,37.236007 107.257965,38.3862455 107.988281,39.29575 C108.718597,40.2052545 109.814055,40.9899134 111.274688,41.64975 C112.73532,42.3095866 114.890611,43.103162 117.740625,44.0305 C120.66189,44.957838 122.941867,45.8494957 124.580625,46.7055 C126.219383,47.5615043 127.45734,48.5958273 128.294531,49.8085 C129.131723,51.0211727 129.550313,52.5904904 129.550313,54.5165 C129.550313,57.7265161 128.356887,60.2320743 125.97,62.03325 C123.583113,63.8344257 120.305646,64.735 116.1375,64.735 Z M137.779688,74.365 C137.423436,74.365 137.138439,74.2580011 136.924688,74.044 C136.710936,73.8299989 136.604062,73.5446685 136.604062,73.188 L136.604062,37.557 C136.604062,37.2003315 136.710936,36.9150011 136.924688,36.701 C137.138439,36.4869989 137.423436,36.38 137.779688,36.38 L138.688125,36.38 C139.044377,36.38 139.329374,36.4869989 139.543125,36.701 C139.756876,36.9150011 139.86375,37.2003315 139.86375,37.557 L139.86375,40.0715 C141.93001,37.2538192 144.92248,35.845 148.84125,35.845 C152.688769,35.845 155.529835,37.0665711 157.364531,39.50975 C159.199228,41.9529289 160.169999,44.9578155 160.276875,48.5245 C160.3125,48.8811685 160.330313,49.4696626 160.330313,50.29 C160.330313,51.1103374 160.3125,51.6988316 160.276875,52.0555 C160.169999,55.6221845 159.199228,58.6270711 157.364531,61.07025 C155.529835,63.5134289 152.688769,64.735 148.84125,64.735 C144.958106,64.735 141.965636,63.3261808 139.86375,60.5085 L139.86375,73.188 C139.86375,73.5446685 139.756876,73.8299989 139.543125,74.044 C139.329374,74.2580011 139.044377,74.365 138.688125,74.365 L137.779688,74.365 Z M148.520625,61.632 C151.406264,61.632 153.517025,60.7135925 154.852969,58.87675 C156.188913,57.0399075 156.910312,54.6770144 157.017188,51.788 C157.052813,51.4313315 157.070625,50.9320032 157.070625,50.29 C157.070625,46.9729834 156.429381,44.2534273 155.146875,42.13125 C153.864369,40.0090727 151.655641,38.948 148.520625,38.948 C145.706236,38.948 143.58657,39.8842406 142.161563,41.75675 C140.736555,43.6292594 139.970626,45.831654 139.86375,48.364 L139.810313,50.4505 L139.86375,52.537 C139.899375,54.0706743 140.237809,55.5240765 140.879063,56.89725 C141.520316,58.2704235 142.482181,59.4028289 143.764688,60.2945 C145.047194,61.1861711 146.632491,61.632 148.520625,61.632 Z M175.079063,64.735 C173.369054,64.735 171.783757,64.3783369 170.323125,63.665 C168.862493,62.9516631 167.695786,61.9886727 166.822969,60.776 C165.950152,59.5633273 165.51375,58.2258406 165.51375,56.7635 C165.51375,54.4094882 166.466709,52.4835075 168.372656,50.9855 C170.278603,49.4874925 172.852484,48.5245021 176.094375,48.0965 L184.5375,46.9195 L184.5375,45.047 C184.5375,43.0853235 183.940787,41.5784219 182.747344,40.52625 C181.5539,39.4740781 179.728137,38.948 177.27,38.948 C175.453116,38.948 173.965787,39.3046631 172.807969,40.018 C171.65015,40.7313369 170.910939,41.5873283 170.590313,42.586 C170.447812,43.0140021 170.278595,43.3082492 170.082656,43.46875 C169.886718,43.6292508 169.628439,43.7095 169.307813,43.7095 L168.559687,43.7095 C168.239061,43.7095 167.96297,43.5935845 167.731406,43.36175 C167.499843,43.1299155 167.384063,42.8535016 167.384063,42.5325 C167.384063,41.7478294 167.740309,40.8294219 168.452812,39.77725 C169.165316,38.7250781 170.26968,37.8066706 171.765938,37.022 C173.262195,36.2373294 175.096864,35.845 177.27,35.845 C181.081894,35.845 183.789367,36.7544909 185.3925,38.5735 C186.995633,40.3925091 187.797188,42.6038203 187.797188,45.2075 L187.797188,63.023 C187.797188,63.3796685 187.690314,63.6649989 187.476562,63.879 C187.262811,64.0930011 186.977814,64.2 186.621563,64.2 L185.713125,64.2 C185.356873,64.2 185.071876,64.0930011 184.858125,63.879 C184.644374,63.6649989 184.5375,63.3796685 184.5375,63.023 L184.5375,60.5085 C183.753746,61.6855059 182.604851,62.6841626 181.090781,63.5045 C179.576711,64.3248374 177.572825,64.735 175.079063,64.735 Z M175.613438,61.632 C178.214076,61.632 180.351554,60.7760086 182.025937,59.064 C183.700321,57.3519914 184.5375,54.8910161 184.5375,51.681 L184.5375,49.862 L177.644062,50.825 C174.722798,51.2173353 172.51407,51.8949952 171.017812,52.858 C169.521555,53.8210048 168.773438,55.0336594 168.773438,56.496 C168.773438,58.1366749 169.459212,59.4028289 170.830781,60.2945 C172.202351,61.1861711 173.796553,61.632 175.613438,61.632 Z M197.415938,64.2 C197.059686,64.2 196.774689,64.0930011 196.560938,63.879 C196.347186,63.6649989 196.240313,63.3796685 196.240313,63.023 L196.240313,37.6105 C196.240313,37.2538316 196.347186,36.9595845 196.560938,36.72775 C196.774689,36.4959155 197.059686,36.38 197.415938,36.38 L198.270938,36.38 C198.627189,36.38 198.921093,36.4959155 199.152656,36.72775 C199.38422,36.9595845 199.5,37.2538316 199.5,37.6105 L199.5,40.0715 C200.782506,37.6104877 203.204982,36.38 206.7675,36.38 L208.744687,36.38 C209.100939,36.38 209.385936,36.4869989 209.599688,36.701 C209.813439,36.9150011 209.920312,37.2003316 209.920312,37.557 L209.920312,38.306 C209.920312,38.6626684 209.813439,38.9479989 209.599688,39.162 C209.385936,39.3760011 209.100939,39.483 208.744687,39.483 L206.446875,39.483 C204.309364,39.483 202.617194,40.1071604 201.370313,41.3555 C200.123431,42.6038396 199.5,44.2979893 199.5,46.438 L199.5,63.023 C199.5,63.3796685 199.38422,63.6649989 199.152656,63.879 C198.921093,64.0930011 198.627189,64.2 198.270938,64.2 L197.415938,64.2 Z M216.065625,64.2 C215.709373,64.2 215.424376,64.0930011 215.210625,63.879 C214.996874,63.6649989 214.89,63.3796685 214.89,63.023 L214.89,27.392 C214.89,27.0353315 214.996874,26.7500011 215.210625,26.536 C215.424376,26.3219989 215.709373,26.215 216.065625,26.215 L216.974063,26.215 C217.330314,26.215 217.615311,26.3219989 217.829062,26.536 C218.042814,26.7500011 218.149688,27.0353315 218.149688,27.392 L218.149688,46.331 L230.06625,37.2895 C230.636253,36.8614979 231.028124,36.6029171 231.241875,36.51375 C231.455626,36.4245829 231.811873,36.38 232.310625,36.38 L233.325938,36.38 C233.646564,36.38 233.904843,36.4780824 234.100781,36.67425 C234.29672,36.8704176 234.394688,37.1289984 234.394688,37.45 C234.394688,37.8423353 234.163127,38.1989984 233.7,38.52 L220.180313,48.792 L235.035937,62.06 C235.499065,62.4880021 235.730625,62.8446652 235.730625,63.13 C235.730625,63.4510016 235.632657,63.7095824 235.436719,63.90575 C235.24078,64.1019176 234.982502,64.2 234.661875,64.2 L233.806875,64.2 C233.272497,64.2 232.880626,64.1554171 232.63125,64.06625 C232.381874,63.9770829 232.025627,63.7185021 231.5625,63.2905 L218.149688,51.36 L218.149688,63.023 C218.149688,63.3796685 218.042814,63.6649989 217.829062,63.879 C217.615311,64.0930011 217.330314,64.2 216.974063,64.2 L216.065625,64.2 Z M242.089687,64.2 C241.733436,64.2 241.448439,64.0930011 241.234687,63.879 C241.020936,63.6649989 240.914062,63.3796685 240.914062,63.023 L240.914062,27.392 C240.914062,27.0353315 241.020936,26.7500011 241.234687,26.536 C241.448439,26.3219989 241.733436,26.215 242.089687,26.215 L242.998125,26.215 C243.354377,26.215 243.639374,26.3219989 243.853125,26.536 C244.066876,26.7500011 244.17375,27.0353315 244.17375,27.392 L244.17375,63.023 C244.17375,63.3796685 244.066876,63.6649989 243.853125,63.879 C243.639374,64.0930011 243.354377,64.2 242.998125,64.2 L242.089687,64.2 Z M263.1975,64.735 C259.813108,64.735 257.087823,63.6204278 255.021562,61.39125 C252.955302,59.1620722 251.779689,56.1750187 251.494687,52.43 L251.44125,50.29 L251.494687,48.15 C251.779689,44.4406481 252.946396,41.4625112 254.994844,39.2155 C257.043291,36.9684888 259.777483,35.845 263.1975,35.845 C266.902519,35.845 269.797021,37.0754877 271.881094,39.5365 C273.965167,41.9975123 275.007187,45.3679786 275.007187,49.648 L275.007187,50.4505 C275.007187,50.8071685 274.891407,51.0924989 274.659844,51.3065 C274.42828,51.5205011 274.134377,51.6275 273.778125,51.6275 L254.754375,51.6275 L254.754375,52.1625 C254.825625,53.8388417 255.20859,55.3992428 255.903281,56.84375 C256.597972,58.2882572 257.568744,59.4474123 258.815625,60.32125 C260.062506,61.1950877 261.523117,61.632 263.1975,61.632 C265.156885,61.632 266.751088,61.2485872 267.980156,60.48175 C269.209225,59.7149128 270.090935,58.9391706 270.625312,58.1545 C270.945939,57.7264979 271.186405,57.4590005 271.346719,57.352 C271.507032,57.2449995 271.800935,57.1915 272.228437,57.1915 L273.083437,57.1915 C273.404064,57.1915 273.671249,57.2806658 273.885,57.459 C274.098751,57.6373342 274.205625,57.8691652 274.205625,58.1545 C274.205625,58.9035037 273.733598,59.8040781 272.789531,60.85625 C271.845464,61.9084219 270.536258,62.8179128 268.861875,63.58475 C267.187492,64.3515872 265.299386,64.735 263.1975,64.735 Z M271.7475,48.6315 L271.7475,48.4175 C271.7475,45.6711529 270.972664,43.4063422 269.422969,41.623 C267.873274,39.8396578 265.798138,38.948 263.1975,38.948 C260.596862,38.948 258.539539,39.8396578 257.025469,41.623 C255.511399,43.4063422 254.754375,45.6711529 254.754375,48.4175 L254.754375,48.6315 L271.7475,48.6315 Z" id="Sparkle" fill="#848484"></path>
            </g>
        </g>
    </g>
</svg>